<?xml version="1.0" encoding="utf-8"?>
<!-- Generator: Adobe Illustrator 16.0.3, SVG Export Plug-In . SVG Version: 6.00 Build 0)  -->
<!DOCTYPE svg PUBLIC "-//W3C//DTD SVG 1.1//EN" "http://www.w3.org/Graphics/SVG/1.1/DTD/svg11.dtd" [
	<!ENTITY ns_extend "http://ns.adobe.com/Extensibility/1.0/">
	<!ENTITY ns_ai "http://ns.adobe.com/AdobeIllustrator/10.0/">
	<!ENTITY ns_graphs "http://ns.adobe.com/Graphs/1.0/">
	<!ENTITY ns_vars "http://ns.adobe.com/Variables/1.0/">
	<!ENTITY ns_imrep "http://ns.adobe.com/ImageReplacement/1.0/">
	<!ENTITY ns_sfw "http://ns.adobe.com/SaveForWeb/1.0/">
	<!ENTITY ns_custom "http://ns.adobe.com/GenericCustomNamespace/1.0/">
	<!ENTITY ns_adobe_xpath "http://ns.adobe.com/XPath/1.0/">
]>
<svg version="1.1" id="Ebene_1" xmlns:x="&ns_extend;" xmlns:i="&ns_ai;" xmlns:graph="&ns_graphs;"
	 xmlns="http://www.w3.org/2000/svg" xmlns:xlink="http://www.w3.org/1999/xlink" x="0px" y="0px" width="104px" height="104px"
	 viewBox="0 0 104 104" enable-background="new 0 0 104 104" xml:space="preserve">
<metadata>
	<sfw  xmlns="&ns_sfw;">
		<slices></slices>
		<sliceSourceBounds  width="104" height="103.824" x="-36.5" y="-35.412" bottomLeftOrigin="true"></sliceSourceBounds>
	</sfw>
</metadata>
<g>
	<linearGradient id="SVGID_1_" gradientUnits="userSpaceOnUse" x1="51.9995" y1="0.5879" x2="51.9995" y2="103.4126">
		<stop  offset="0" style="stop-color:#FFFFFF"/>
		<stop  offset="1" style="stop-color:#999999"/>
	</linearGradient>
	<path fill="url(#SVGID_1_)" stroke="#B3B3B3" stroke-miterlimit="10" d="M52,0.588c28.465,0,51.5,22.995,51.5,51.412
		c0,28.418-23.035,51.413-51.5,51.413C23.534,103.412,0.5,80.418,0.5,52C0.5,23.583,23.534,0.588,52,0.588L52,0.588z"/>
	<linearGradient id="SVGID_2_" gradientUnits="userSpaceOnUse" x1="51.9653" y1="102.4912" x2="51.9653" y2="1.5117">
		<stop  offset="0" style="stop-color:#808080"/>
		<stop  offset="0.1804" style="stop-color:#CCCCCC"/>
		<stop  offset="0.3608" style="stop-color:#848686"/>
		<stop  offset="0.549" style="stop-color:#FFFFFF"/>
		<stop  offset="0.7216" style="stop-color:#CCF5F5"/>
		<stop  offset="0.9216" style="stop-color:#999999"/>
		<stop  offset="1" style="stop-color:#808080"/>
	</linearGradient>
	<path fill="url(#SVGID_2_)" stroke="#B3B3B3" stroke-width="0.2283" stroke-miterlimit="10" d="M52,1.511
		c27.915,0,50.506,22.622,50.506,50.488c0,27.869-22.591,50.492-50.506,50.492C24.017,102.491,1.424,79.868,1.424,52
		C1.424,24.133,24.017,1.511,52,1.511L52,1.511z"/>
	
		<linearGradient id="SVGID_3_" gradientUnits="userSpaceOnUse" x1="9516.5391" y1="-13697.5" x2="11349.04" y2="-15708.7598" gradientTransform="matrix(0.0284 0 0 -0.0284 -244.2327 -365.5812)">
		<stop  offset="0" style="stop-color:#7F7F81"/>
		<stop  offset="1" style="stop-color:#F9F9FB"/>
	</linearGradient>
	<path fill="url(#SVGID_3_)" d="M52.07,9.237c23.625,0,42.763,19.139,42.763,42.761c0,23.625-19.139,42.764-42.763,42.764
		c-23.625,0-42.764-19.139-42.764-42.764C9.306,28.376,28.445,9.237,52.07,9.237z"/>
	<radialGradient id="SVGID_4_" cx="52.1401" cy="52.21" r="42.0624" gradientUnits="userSpaceOnUse">
		<stop  offset="0.9458" style="stop-color:#FFFFFF"/>
		<stop  offset="0.9669" style="stop-color:#FDFDFD"/>
		<stop  offset="0.9769" style="stop-color:#F5F5F5"/>
		<stop  offset="0.9846" style="stop-color:#E8E8E8"/>
		<stop  offset="0.9911" style="stop-color:#D6D6D6"/>
		<stop  offset="0.9967" style="stop-color:#BEBEBE"/>
		<stop  offset="1" style="stop-color:#ADADAD"/>
	</radialGradient>
	<path fill="url(#SVGID_4_)" d="M52.14,10.218c23.205,0,41.991,18.788,41.991,41.991c0,23.206-18.786,41.994-41.991,41.994
		c-23.205,0-41.99-18.788-41.99-41.994C10.149,29.006,28.935,10.218,52.14,10.218z"/>
	
		<linearGradient id="SVGID_5_" gradientUnits="userSpaceOnUse" x1="9644.9785" y1="-13911.0996" x2="11220.7734" y2="-15495.3389" gradientTransform="matrix(0.0284 0 0 -0.0284 -244.2327 -365.5812)">
		<stop  offset="0" style="stop-color:#59595B"/>
		<stop  offset="1" style="stop-color:#B7B8BC"/>
	</linearGradient>
	<path fill="url(#SVGID_5_)" d="M52.07,14.634c20.681,0,37.365,16.755,37.365,37.364c0,20.682-16.753,37.368-37.365,37.368
		c-20.679,0-37.364-16.755-37.364-37.368C14.706,31.32,31.46,14.634,52.07,14.634z"/>
	
		<linearGradient id="SVGID_6_" gradientUnits="userSpaceOnUse" x1="11036.4805" y1="-15502.8125" x2="9826.96" y2="-13905.3545" gradientTransform="matrix(0.0284 0 0 -0.0284 -244.2327 -365.5812)">
		<stop  offset="0" style="stop-color:#808080"/>
		<stop  offset="1" style="stop-color:#4D4D4D"/>
	</linearGradient>
	<path fill="url(#SVGID_6_)" d="M52.07,17.018c19.349,0,35.051,15.705,35.051,35.051c0,19.349-15.702,35.053-35.051,35.053
		S17.019,71.418,17.019,52.069C17.019,32.722,32.721,17.018,52.07,17.018z"/>
	
		<linearGradient id="SVGID_7_" gradientUnits="userSpaceOnUse" x1="11062.6816" y1="-15439.9053" x2="9806.2764" y2="-13942.6279" gradientTransform="matrix(0.0284 0 0 -0.0284 -244.2327 -365.5812)">
		<stop  offset="0" style="stop-color:#999999"/>
		<stop  offset="0.7686" style="stop-color:#B2B2B2"/>
		<stop  offset="1" style="stop-color:#FEFEFE"/>
	</linearGradient>
	<path fill="url(#SVGID_7_)" d="M52.071,24.27c15.142,0,27.341,12.266,27.341,27.338c0,15.143-12.27,27.341-27.341,27.341
		c-15.143,0-27.339-12.269-27.339-27.341C24.732,36.466,36.999,24.27,52.071,24.27z M52.071,25.39
		c14.512,0,26.289,11.779,26.289,26.289c0,14.512-11.776,26.288-26.289,26.288c-14.512,0-26.288-11.776-26.288-26.288
		C25.783,37.169,37.559,25.39,52.071,25.39z"/>
	
		<linearGradient id="SVGID_8_" gradientUnits="userSpaceOnUse" x1="10433.1875" y1="-15858.0977" x2="10433.1875" y2="-13725.3477" gradientTransform="matrix(0.0284 0 0 -0.0284 -244.2327 -365.5812)">
		<stop  offset="0" style="stop-color:#808080"/>
		<stop  offset="0.1804" style="stop-color:#CCCCCC"/>
		<stop  offset="0.3608" style="stop-color:#848686"/>
		<stop  offset="0.549" style="stop-color:#FFFFFF"/>
		<stop  offset="0.7216" style="stop-color:#CCF5F5"/>
		<stop  offset="0.9216" style="stop-color:#999999"/>
		<stop  offset="1" style="stop-color:#808080"/>
	</linearGradient>
	<path fill="url(#SVGID_8_)" d="M52.07,21.714c16.685,0,30.284,13.532,30.284,30.285c0,16.685-13.528,30.285-30.284,30.285
		c-16.686,0-30.284-13.528-30.284-30.285C21.786,35.315,35.314,21.714,52.07,21.714z"/>
	
		<radialGradient id="SVGID_9_" cx="10433.1875" cy="-14703.5625" r="1048.3229" gradientTransform="matrix(0.0284 0 0 -0.0284 -244.2327 -365.5822)" gradientUnits="userSpaceOnUse">
		<stop  offset="0" style="stop-color:#FFFFFF;stop-opacity:0"/>
		<stop  offset="0.6218" style="stop-color:#FFFFFF;stop-opacity:0"/>
		<stop  offset="0.7241" style="stop-color:#FFFFFF;stop-opacity:0"/>
		<stop  offset="0.9509" style="stop-color:#3D3D3D;stop-opacity:0"/>
		<stop  offset="1" style="stop-color:#292929;stop-opacity:0.4"/>
	</radialGradient>
	<path fill="url(#SVGID_9_)" d="M52.07,21.714c16.685,0,30.284,13.532,30.284,30.285c0,16.685-13.528,30.285-30.284,30.285
		c-16.686,0-30.284-13.528-30.284-30.285C21.786,35.315,35.314,21.714,52.07,21.714z"/>
	
		<linearGradient id="SVGID_10_" gradientUnits="userSpaceOnUse" x1="11062.6406" y1="-15446.2324" x2="9806.2588" y2="-13948.9834" gradientTransform="matrix(0.0284 0 0 -0.0284 -244.2327 -365.5812)">
		<stop  offset="0" style="stop-color:#999999"/>
		<stop  offset="0.7686" style="stop-color:#B2B2B2"/>
		<stop  offset="1" style="stop-color:#FEFEFE"/>
	</linearGradient>
	<path fill="url(#SVGID_10_)" d="M52.07,24.45c15.143,0,27.341,12.266,27.341,27.338c0,15.142-12.27,27.341-27.341,27.341
		c-15.143,0-27.339-12.269-27.339-27.341C24.731,36.646,36.998,24.45,52.07,24.45z M52.07,25.57
		c14.512,0,26.288,11.779,26.288,26.288c0,14.513-11.776,26.288-26.288,26.288S25.782,66.371,25.782,51.858
		C25.782,37.349,37.559,25.57,52.07,25.57z"/>
	<radialGradient id="SVGID_11_" cx="31.6802" cy="26.5166" r="24.3454" gradientUnits="userSpaceOnUse">
		<stop  offset="0" style="stop-color:#FFFFFF"/>
		<stop  offset="0.653" style="stop-color:#999999"/>
		<stop  offset="1" style="stop-color:#666666;stop-opacity:0.7"/>
	</radialGradient>
	<path fill="url(#SVGID_11_)" d="M52.07,25.335c14.768,0,26.667,11.963,26.667,26.664c0,14.768-11.967,26.668-26.667,26.668
		c-14.768,0-26.664-11.968-26.664-26.668C25.406,37.23,37.37,25.335,52.07,25.335z"/>
</g>
</svg>
